<svg width="128" height="128" viewBox="0 0 128 128" fill="none" xmlns="http://www.w3.org/2000/svg" role="img" aria-label="interCEde icon">
  <title>interCEde icon</title>
  <defs>
    <linearGradient id="ceGradI" x1="50" y1="79" x2="80" y2="49" gradientUnits="userSpaceOnUse"><stop offset="0" stop-color="#FF4D45"/><stop offset="0.34" stop-color="#FFB000"/><stop offset="0.68" stop-color="#18B866"/><stop offset="1" stop-color="#3B82F6"/></linearGradient>
    <mask id="grainI" maskUnits="userSpaceOnUse"><circle cx="50.69" cy="49.70" r="0.18" fill="#fff"/><circle cx="52.43" cy="49.91" r="0.21" fill="#fff"/><circle cx="54.12" cy="49.77" r="0.25" fill="#fff"/><circle cx="55.87" cy="49.76" r="0.27" fill="#fff"/><circle cx="57.44" cy="49.77" r="0.26" fill="#fff"/><circle cx="59.24" cy="49.96" r="0.35" fill="#fff"/><circle cx="60.97" cy="49.69" r="0.36" fill="#fff"/><circle cx="62.49" cy="49.97" r="0.48" fill="#fff"/><circle cx="64.13" cy="49.76" r="0.47" fill="#fff"/><circle cx="65.83" cy="49.96" r="0.48" fill="#fff"/><circle cx="67.59" cy="49.90" r="0.62" fill="#fff"/><circle cx="69.25" cy="49.87" r="0.60" fill="#fff"/><circle cx="70.78" cy="49.79" r="0.73" fill="#fff"/><circle cx="72.37" cy="49.74" r="0.78" fill="#fff"/><circle cx="74.09" cy="49.70" r="0.69" fill="#fff"/><circle cx="75.85" cy="49.78" r="0.94" fill="#fff"/><circle cx="77.62" cy="49.98" r="0.84" fill="#fff"/><circle cx="79.04" cy="49.71" r="0.95" fill="#fff"/><circle cx="50.90" cy="51.48" r="0.15" fill="#fff"/><circle cx="52.48" cy="51.54" r="0.20" fill="#fff"/><circle cx="54.24" cy="51.60" r="0.23" fill="#fff"/><circle cx="55.72" cy="51.60" r="0.24" fill="#fff"/><circle cx="57.52" cy="51.46" r="0.32" fill="#fff"/><circle cx="59.08" cy="51.42" r="0.32" fill="#fff"/><circle cx="60.73" cy="51.62" r="0.39" fill="#fff"/><circle cx="62.45" cy="51.47" r="0.48" fill="#fff"/><circle cx="64.17" cy="51.42" r="0.51" fill="#fff"/><circle cx="65.88" cy="51.65" r="0.47" fill="#fff"/><circle cx="67.49" cy="51.60" r="0.62" fill="#fff"/><circle cx="69.29" cy="51.36" r="0.59" fill="#fff"/><circle cx="70.72" cy="51.41" r="0.76" fill="#fff"/><circle cx="72.52" cy="51.63" r="0.71" fill="#fff"/><circle cx="74.28" cy="51.48" r="0.74" fill="#fff"/><circle cx="75.92" cy="51.63" r="0.76" fill="#fff"/><circle cx="77.53" cy="51.54" r="0.83" fill="#fff"/><circle cx="79.13" cy="51.39" r="0.88" fill="#fff"/><circle cx="50.76" cy="53.20" r="0.17" fill="#fff"/><circle cx="52.41" cy="53.02" r="0.18" fill="#fff"/><circle cx="54.22" cy="53.07" r="0.21" fill="#fff"/><circle cx="55.74" cy="53.26" r="0.26" fill="#fff"/><circle cx="57.37" cy="53.05" r="0.29" fill="#fff"/><circle cx="59.18" cy="53.21" r="0.30" fill="#fff"/><circle cx="60.73" cy="53.23" r="0.37" fill="#fff"/><circle cx="62.43" cy="53.11" r="0.48" fill="#fff"/><circle cx="64.11" cy="53.19" r="0.46" fill="#fff"/><circle cx="65.81" cy="53.28" r="0.59" fill="#fff"/><circle cx="67.46" cy="53.08" r="0.61" fill="#fff"/><circle cx="69.08" cy="53.02" r="0.69" fill="#fff"/><circle cx="70.81" cy="53.26" r="0.66" fill="#fff"/><circle cx="72.61" cy="53.15" r="0.67" fill="#fff"/><circle cx="74.02" cy="53.18" r="0.81" fill="#fff"/><circle cx="75.96" cy="53.04" r="0.87" fill="#fff"/><circle cx="77.46" cy="53.17" r="0.82" fill="#fff"/><circle cx="79.10" cy="53.17" r="1.06" fill="#fff"/><circle cx="50.72" cy="54.83" r="0.17" fill="#fff"/><circle cx="52.64" cy="54.74" r="0.17" fill="#fff"/><circle cx="54.30" cy="54.98" r="0.22" fill="#fff"/><circle cx="55.70" cy="54.96" r="0.25" fill="#fff"/><circle cx="57.62" cy="54.87" r="0.32" fill="#fff"/><circle cx="59.06" cy="54.92" r="0.32" fill="#fff"/><circle cx="60.80" cy="54.94" r="0.41" fill="#fff"/><circle cx="62.40" cy="54.75" r="0.42" fill="#fff"/><circle cx="64.17" cy="54.80" r="0.43" fill="#fff"/><circle cx="65.76" cy="54.90" r="0.58" fill="#fff"/><circle cx="67.36" cy="54.85" r="0.61" fill="#fff"/><circle cx="69.03" cy="54.93" r="0.57" fill="#fff"/><circle cx="70.86" cy="54.85" r="0.70" fill="#fff"/><circle cx="72.44" cy="54.81" r="0.75" fill="#fff"/><circle cx="74.14" cy="54.88" r="0.78" fill="#fff"/><circle cx="75.81" cy="54.69" r="0.87" fill="#fff"/><circle cx="77.50" cy="54.75" r="0.96" fill="#fff"/><circle cx="79.25" cy="54.82" r="0.88" fill="#fff"/><circle cx="50.83" cy="56.38" r="0.14" fill="#fff"/><circle cx="52.48" cy="56.38" r="0.18" fill="#fff"/><circle cx="54.17" cy="56.36" r="0.23" fill="#fff"/><circle cx="55.71" cy="56.57" r="0.28" fill="#fff"/><circle cx="57.50" cy="56.37" r="0.30" fill="#fff"/><circle cx="59.13" cy="56.64" r="0.31" fill="#fff"/><circle cx="60.94" cy="56.65" r="0.41" fill="#fff"/><circle cx="62.59" cy="56.41" r="0.48" fill="#fff"/><circle cx="64.16" cy="56.64" r="0.53" fill="#fff"/><circle cx="65.73" cy="56.59" r="0.58" fill="#fff"/><circle cx="67.37" cy="56.46" r="0.61" fill="#fff"/><circle cx="69.06" cy="56.62" r="0.59" fill="#fff"/><circle cx="70.93" cy="56.39" r="0.68" fill="#fff"/><circle cx="72.63" cy="56.41" r="0.69" fill="#fff"/><circle cx="74.17" cy="56.45" r="0.69" fill="#fff"/><circle cx="75.74" cy="56.40" r="0.93" fill="#fff"/><circle cx="77.55" cy="56.62" r="0.82" fill="#fff"/><circle cx="79.25" cy="56.38" r="0.96" fill="#fff"/><circle cx="50.87" cy="58.12" r="0.17" fill="#fff"/><circle cx="52.52" cy="58.19" r="0.21" fill="#fff"/><circle cx="54.05" cy="58.31" r="0.23" fill="#fff"/><circle cx="55.80" cy="58.26" r="0.24" fill="#fff"/><circle cx="57.65" cy="58.19" r="0.29" fill="#fff"/><circle cx="59.25" cy="58.15" r="0.31" fill="#fff"/><circle cx="60.91" cy="58.03" r="0.41" fill="#fff"/><circle cx="62.43" cy="58.21" r="0.48" fill="#fff"/><circle cx="64.19" cy="58.22" r="0.45" fill="#fff"/><circle cx="65.68" cy="58.03" r="0.48" fill="#fff"/><circle cx="67.53" cy="58.15" r="0.58" fill="#fff"/><circle cx="69.29" cy="58.06" r="0.58" fill="#fff"/><circle cx="70.88" cy="58.02" r="0.59" fill="#fff"/><circle cx="72.46" cy="58.05" r="0.71" fill="#fff"/><circle cx="74.08" cy="58.19" r="0.80" fill="#fff"/><circle cx="75.74" cy="58.20" r="0.84" fill="#fff"/><circle cx="77.39" cy="58.30" r="0.84" fill="#fff"/><circle cx="79.06" cy="58.05" r="0.99" fill="#fff"/><circle cx="50.94" cy="59.92" r="0.16" fill="#fff"/><circle cx="52.43" cy="59.69" r="0.19" fill="#fff"/><circle cx="54.19" cy="59.79" r="0.23" fill="#fff"/><circle cx="55.82" cy="59.96" r="0.27" fill="#fff"/><circle cx="57.42" cy="59.95" r="0.26" fill="#fff"/><circle cx="59.18" cy="59.81" r="0.32" fill="#fff"/><circle cx="60.70" cy="59.92" r="0.34" fill="#fff"/><circle cx="62.52" cy="59.97" r="0.39" fill="#fff"/><circle cx="64.08" cy="59.87" r="0.48" fill="#fff"/><circle cx="65.88" cy="59.93" r="0.48" fill="#fff"/><circle cx="67.44" cy="59.77" r="0.51" fill="#fff"/><circle cx="69.28" cy="59.92" r="0.66" fill="#fff"/><circle cx="70.69" cy="59.94" r="0.72" fill="#fff"/><circle cx="72.49" cy="59.91" r="0.72" fill="#fff"/><circle cx="74.08" cy="59.71" r="0.73" fill="#fff"/><circle cx="75.69" cy="59.78" r="0.89" fill="#fff"/><circle cx="77.56" cy="59.94" r="0.94" fill="#fff"/><circle cx="79.10" cy="59.85" r="0.94" fill="#fff"/><circle cx="50.92" cy="61.51" r="0.15" fill="#fff"/><circle cx="52.54" cy="61.64" r="0.17" fill="#fff"/><circle cx="54.28" cy="61.35" r="0.21" fill="#fff"/><circle cx="55.75" cy="61.57" r="0.29" fill="#fff"/><circle cx="57.57" cy="61.45" r="0.33" fill="#fff"/><circle cx="59.12" cy="61.42" r="0.37" fill="#fff"/><circle cx="60.87" cy="61.56" r="0.40" fill="#fff"/><circle cx="62.64" cy="61.49" r="0.47" fill="#fff"/><circle cx="64.23" cy="61.61" r="0.47" fill="#fff"/><circle cx="65.90" cy="61.52" r="0.50" fill="#fff"/><circle cx="67.41" cy="61.54" r="0.51" fill="#fff"/><circle cx="69.29" cy="61.39" r="0.55" fill="#fff"/><circle cx="70.72" cy="61.63" r="0.65" fill="#fff"/><circle cx="72.39" cy="61.36" r="0.65" fill="#fff"/><circle cx="74.22" cy="61.54" r="0.82" fill="#fff"/><circle cx="75.90" cy="61.37" r="0.86" fill="#fff"/><circle cx="77.46" cy="61.60" r="0.97" fill="#fff"/><circle cx="79.28" cy="61.37" r="1.04" fill="#fff"/><circle cx="50.96" cy="63.30" r="0.14" fill="#fff"/><circle cx="52.41" cy="63.05" r="0.17" fill="#fff"/><circle cx="54.27" cy="63.26" r="0.23" fill="#fff"/><circle cx="55.93" cy="63.21" r="0.24" fill="#fff"/><circle cx="57.38" cy="63.05" r="0.32" fill="#fff"/><circle cx="59.08" cy="63.11" r="0.33" fill="#fff"/><circle cx="60.69" cy="63.09" r="0.36" fill="#fff"/><circle cx="62.56" cy="63.13" r="0.41" fill="#fff"/><circle cx="64.31" cy="63.17" r="0.52" fill="#fff"/><circle cx="65.87" cy="63.03" r="0.51" fill="#fff"/><circle cx="67.48" cy="63.25" r="0.55" fill="#fff"/><circle cx="69.23" cy="63.18" r="0.58" fill="#fff"/><circle cx="70.94" cy="63.04" r="0.73" fill="#fff"/><circle cx="72.40" cy="63.02" r="0.68" fill="#fff"/><circle cx="74.25" cy="63.31" r="0.69" fill="#fff"/><circle cx="75.83" cy="63.16" r="0.90" fill="#fff"/><circle cx="77.41" cy="63.17" r="0.86" fill="#fff"/><circle cx="79.27" cy="63.09" r="1.06" fill="#fff"/><circle cx="50.77" cy="64.75" r="0.17" fill="#fff"/><circle cx="52.50" cy="64.72" r="0.19" fill="#fff"/><circle cx="54.04" cy="64.92" r="0.23" fill="#fff"/><circle cx="55.92" cy="64.87" r="0.25" fill="#fff"/><circle cx="57.47" cy="64.80" r="0.33" fill="#fff"/><circle cx="59.04" cy="64.95" r="0.30" fill="#fff"/><circle cx="60.75" cy="64.76" r="0.42" fill="#fff"/><circle cx="62.50" cy="64.80" r="0.47" fill="#fff"/><circle cx="64.09" cy="64.82" r="0.48" fill="#fff"/><circle cx="65.91" cy="64.91" r="0.54" fill="#fff"/><circle cx="67.45" cy="64.78" r="0.53" fill="#fff"/><circle cx="69.27" cy="64.88" r="0.66" fill="#fff"/><circle cx="70.73" cy="64.81" r="0.72" fill="#fff"/><circle cx="72.52" cy="64.72" r="0.72" fill="#fff"/><circle cx="74.28" cy="64.75" r="0.73" fill="#fff"/><circle cx="75.77" cy="64.89" r="0.91" fill="#fff"/><circle cx="77.40" cy="64.73" r="0.84" fill="#fff"/><circle cx="79.11" cy="64.84" r="0.87" fill="#fff"/><circle cx="50.78" cy="66.41" r="0.18" fill="#fff"/><circle cx="52.57" cy="66.38" r="0.21" fill="#fff"/><circle cx="54.05" cy="66.47" r="0.25" fill="#fff"/><circle cx="55.92" cy="66.57" r="0.25" fill="#fff"/><circle cx="57.41" cy="66.54" r="0.27" fill="#fff"/><circle cx="59.08" cy="66.47" r="0.30" fill="#fff"/><circle cx="60.80" cy="66.59" r="0.40" fill="#fff"/><circle cx="62.50" cy="66.54" r="0.43" fill="#fff"/><circle cx="64.06" cy="66.53" r="0.46" fill="#fff"/><circle cx="65.91" cy="66.62" r="0.52" fill="#fff"/><circle cx="67.52" cy="66.57" r="0.56" fill="#fff"/><circle cx="69.09" cy="66.57" r="0.69" fill="#fff"/><circle cx="70.92" cy="66.56" r="0.74" fill="#fff"/><circle cx="72.55" cy="66.54" r="0.72" fill="#fff"/><circle cx="74.11" cy="66.54" r="0.71" fill="#fff"/><circle cx="75.81" cy="66.58" r="0.89" fill="#fff"/><circle cx="77.54" cy="66.43" r="0.88" fill="#fff"/><circle cx="79.15" cy="66.54" r="0.93" fill="#fff"/><circle cx="50.89" cy="68.30" r="0.15" fill="#fff"/><circle cx="52.55" cy="68.25" r="0.18" fill="#fff"/><circle cx="54.16" cy="68.31" r="0.20" fill="#fff"/><circle cx="55.85" cy="68.06" r="0.28" fill="#fff"/><circle cx="57.63" cy="68.17" r="0.27" fill="#fff"/><circle cx="59.19" cy="68.18" r="0.36" fill="#fff"/><circle cx="60.84" cy="68.21" r="0.41" fill="#fff"/><circle cx="62.51" cy="68.14" r="0.48" fill="#fff"/><circle cx="64.08" cy="68.22" r="0.46" fill="#fff"/><circle cx="65.91" cy="68.05" r="0.59" fill="#fff"/><circle cx="67.46" cy="68.03" r="0.54" fill="#fff"/><circle cx="69.14" cy="68.02" r="0.61" fill="#fff"/><circle cx="70.81" cy="68.23" r="0.65" fill="#fff"/><circle cx="72.43" cy="68.08" r="0.78" fill="#fff"/><circle cx="74.30" cy="68.17" r="0.73" fill="#fff"/><circle cx="75.92" cy="68.13" r="0.78" fill="#fff"/><circle cx="77.39" cy="68.25" r="0.97" fill="#fff"/><circle cx="79.21" cy="68.16" r="0.97" fill="#fff"/><circle cx="50.75" cy="69.97" r="0.15" fill="#fff"/><circle cx="52.54" cy="69.93" r="0.20" fill="#fff"/><circle cx="54.16" cy="69.77" r="0.22" fill="#fff"/><circle cx="55.72" cy="69.93" r="0.25" fill="#fff"/><circle cx="57.61" cy="69.76" r="0.29" fill="#fff"/><circle cx="59.09" cy="69.81" r="0.31" fill="#fff"/><circle cx="60.68" cy="69.90" r="0.36" fill="#fff"/><circle cx="62.42" cy="69.77" r="0.43" fill="#fff"/><circle cx="64.15" cy="69.87" r="0.50" fill="#fff"/><circle cx="65.79" cy="69.96" r="0.57" fill="#fff"/><circle cx="67.37" cy="69.93" r="0.63" fill="#fff"/><circle cx="69.25" cy="69.73" r="0.68" fill="#fff"/><circle cx="70.87" cy="69.69" r="0.60" fill="#fff"/><circle cx="72.64" cy="69.88" r="0.69" fill="#fff"/><circle cx="74.05" cy="69.73" r="0.73" fill="#fff"/><circle cx="75.92" cy="69.79" r="0.77" fill="#fff"/><circle cx="77.62" cy="69.92" r="0.82" fill="#fff"/><circle cx="79.28" cy="69.87" r="1.02" fill="#fff"/><circle cx="50.88" cy="71.62" r="0.17" fill="#fff"/><circle cx="52.60" cy="71.41" r="0.20" fill="#fff"/><circle cx="54.18" cy="71.57" r="0.22" fill="#fff"/><circle cx="55.95" cy="71.52" r="0.24" fill="#fff"/><circle cx="57.42" cy="71.39" r="0.30" fill="#fff"/><circle cx="59.03" cy="71.49" r="0.31" fill="#fff"/><circle cx="60.83" cy="71.50" r="0.39" fill="#fff"/><circle cx="62.61" cy="71.35" r="0.47" fill="#fff"/><circle cx="64.16" cy="71.52" r="0.50" fill="#fff"/><circle cx="65.94" cy="71.46" r="0.51" fill="#fff"/><circle cx="67.64" cy="71.37" r="0.59" fill="#fff"/><circle cx="69.21" cy="71.36" r="0.64" fill="#fff"/><circle cx="70.89" cy="71.63" r="0.65" fill="#fff"/><circle cx="72.64" cy="71.50" r="0.73" fill="#fff"/><circle cx="74.29" cy="71.36" r="0.83" fill="#fff"/><circle cx="75.87" cy="71.45" r="0.92" fill="#fff"/><circle cx="77.46" cy="71.49" r="0.90" fill="#fff"/><circle cx="79.25" cy="71.41" r="0.94" fill="#fff"/><circle cx="50.81" cy="73.18" r="0.17" fill="#fff"/><circle cx="52.44" cy="73.26" r="0.18" fill="#fff"/><circle cx="54.17" cy="73.10" r="0.22" fill="#fff"/><circle cx="55.98" cy="73.21" r="0.28" fill="#fff"/><circle cx="57.45" cy="73.11" r="0.28" fill="#fff"/><circle cx="59.19" cy="73.21" r="0.36" fill="#fff"/><circle cx="60.70" cy="73.23" r="0.42" fill="#fff"/><circle cx="62.51" cy="73.03" r="0.41" fill="#fff"/><circle cx="64.02" cy="73.07" r="0.53" fill="#fff"/><circle cx="65.87" cy="73.21" r="0.56" fill="#fff"/><circle cx="67.62" cy="73.20" r="0.59" fill="#fff"/><circle cx="69.20" cy="73.23" r="0.64" fill="#fff"/><circle cx="70.89" cy="73.08" r="0.71" fill="#fff"/><circle cx="72.49" cy="73.25" r="0.66" fill="#fff"/><circle cx="74.07" cy="73.03" r="0.84" fill="#fff"/><circle cx="75.96" cy="73.21" r="0.81" fill="#fff"/><circle cx="77.60" cy="73.25" r="0.91" fill="#fff"/><circle cx="79.09" cy="73.11" r="0.94" fill="#fff"/><circle cx="50.78" cy="74.81" r="0.17" fill="#fff"/><circle cx="52.63" cy="74.70" r="0.19" fill="#fff"/><circle cx="54.03" cy="74.72" r="0.24" fill="#fff"/><circle cx="55.86" cy="74.96" r="0.25" fill="#fff"/><circle cx="57.35" cy="74.80" r="0.30" fill="#fff"/><circle cx="59.30" cy="74.98" r="0.34" fill="#fff"/><circle cx="60.81" cy="74.71" r="0.40" fill="#fff"/><circle cx="62.41" cy="74.73" r="0.38" fill="#fff"/><circle cx="64.02" cy="74.89" r="0.43" fill="#fff"/><circle cx="65.97" cy="74.71" r="0.57" fill="#fff"/><circle cx="67.39" cy="74.69" r="0.61" fill="#fff"/><circle cx="69.09" cy="74.90" r="0.58" fill="#fff"/><circle cx="70.70" cy="74.92" r="0.71" fill="#fff"/><circle cx="72.61" cy="74.90" r="0.66" fill="#fff"/><circle cx="74.21" cy="74.90" r="0.78" fill="#fff"/><circle cx="75.96" cy="74.76" r="0.94" fill="#fff"/><circle cx="77.57" cy="74.69" r="0.79" fill="#fff"/><circle cx="79.21" cy="74.93" r="0.85" fill="#fff"/><circle cx="50.78" cy="76.57" r="0.15" fill="#fff"/><circle cx="52.61" cy="76.50" r="0.17" fill="#fff"/><circle cx="54.13" cy="76.52" r="0.22" fill="#fff"/><circle cx="55.89" cy="76.39" r="0.28" fill="#fff"/><circle cx="57.46" cy="76.54" r="0.31" fill="#fff"/><circle cx="59.14" cy="76.47" r="0.36" fill="#fff"/><circle cx="60.97" cy="76.59" r="0.39" fill="#fff"/><circle cx="62.44" cy="76.37" r="0.48" fill="#fff"/><circle cx="64.23" cy="76.60" r="0.46" fill="#fff"/><circle cx="65.87" cy="76.64" r="0.57" fill="#fff"/><circle cx="67.53" cy="76.44" r="0.56" fill="#fff"/><circle cx="69.28" cy="76.46" r="0.65" fill="#fff"/><circle cx="70.86" cy="76.62" r="0.73" fill="#fff"/><circle cx="72.43" cy="76.35" r="0.69" fill="#fff"/><circle cx="74.14" cy="76.53" r="0.85" fill="#fff"/><circle cx="75.95" cy="76.36" r="0.91" fill="#fff"/><circle cx="77.59" cy="76.61" r="0.91" fill="#fff"/><circle cx="79.10" cy="76.61" r="1.03" fill="#fff"/><circle cx="50.89" cy="78.29" r="0.15" fill="#fff"/><circle cx="52.38" cy="78.18" r="0.20" fill="#fff"/><circle cx="54.08" cy="78.24" r="0.24" fill="#fff"/><circle cx="55.75" cy="78.20" r="0.27" fill="#fff"/><circle cx="57.49" cy="78.08" r="0.28" fill="#fff"/><circle cx="59.24" cy="78.25" r="0.34" fill="#fff"/><circle cx="60.71" cy="78.26" r="0.41" fill="#fff"/><circle cx="62.42" cy="78.19" r="0.47" fill="#fff"/><circle cx="64.28" cy="78.17" r="0.47" fill="#fff"/><circle cx="65.86" cy="78.07" r="0.48" fill="#fff"/><circle cx="67.40" cy="78.23" r="0.56" fill="#fff"/><circle cx="69.19" cy="78.14" r="0.63" fill="#fff"/><circle cx="70.73" cy="78.03" r="0.76" fill="#fff"/><circle cx="72.46" cy="78.05" r="0.76" fill="#fff"/><circle cx="74.25" cy="78.06" r="0.81" fill="#fff"/><circle cx="75.79" cy="78.17" r="0.74" fill="#fff"/><circle cx="77.36" cy="78.31" r="0.98" fill="#fff"/><circle cx="79.16" cy="78.19" r="0.90" fill="#fff"/></mask>
  </defs>
  <rect x="0.75" y="0.75" width="126.5" height="126.5" rx="28" fill="#FFFFFF" stroke="#ECECEC" stroke-width="1.5"/>
  <circle cx="28" cy="64" r="6" fill="#3B82F6"/>
  <line x1="34" y1="64" x2="50" y2="64" stroke="#3B82F6" stroke-width="4" stroke-linecap="round"/>
  <path d="M80 60 L98 38" stroke="#FF4D45" stroke-width="3.8" stroke-linecap="round"/>
  <path d="M80 64 L100 64" stroke="#FFB000" stroke-width="3.8" stroke-linecap="round"/>
  <path d="M80 68 L98 90" stroke="#18B866" stroke-width="3.8" stroke-linecap="round"/>
  <circle cx="102" cy="36" r="6.5" fill="#FF4D45"/>
  <circle cx="106" cy="64" r="6.5" fill="#FFB000"/>
  <circle cx="102" cy="92" r="6.5" fill="#18B866"/>
  <g mask="url(#grainI)"><rect x="50" y="49" width="30" height="30" rx="9" fill="url(#ceGradI)"/></g>
</svg>
